<svg xmlns="http://www.w3.org/2000/svg" width="102" height="100" fill="none"><path fill="#E16B5A" d="M50.768.00943446S80.7786-1.31478 96.6843 28.2587H48.2166s-9.1534-.2954-16.9563 10.5945c-2.2507 4.5609-4.651 9.2695-1.9501 18.5383-3.9011-6.4727-20.7078-35.1649-20.7078-35.1649S20.4575 1.186 50.768.00943446Z"/><path fill="#FFD464" d="M95.1223 75.0953s-13.8386 26.1427-47.9118 24.857c4.2033-7.1336 24.2398-41.1531 24.2398-41.1531s4.8372-7.6258-.8748-19.6961c-2.9038-4.1922-11.7-8.5859-21.2375-10.9281 7.6701-.075 47.2508.0047 47.2508.0047s12.6522 20.5898-1.4665 46.9156Z"/><path fill="#74B340" d="M6.62761 75.2937s-16.16968-24.825 2.00422-53.1156C12.8319 29.3148 32.8573 63.3406 32.8573 63.3406s4.3138 7.9203 17.8319 9.1047c5.1529-.3688 10.5134-.682 17.3508-7.6078-3.7699 6.5492-20.7126 35.1617-20.7126 35.1617s-24.5102.4488-40.69979-24.7055Z"/><ellipse cx="50.6463" cy="50.4062" fill="#fff" rx="23.0643" ry="22.6562"/><ellipse cx="50.6383" cy="50.4062" fill="#2995CC" rx="18.2924" ry="17.9688"/><path fill="#268CBF" d="M50.6431 32.4414c-.3643 0-.7245.0133-1.0824.0336 9.5979.5508 17.2091 8.3687 17.2091 17.9344 0 9.5672-7.6112 17.3859-17.2091 17.9367.3587.0195.7189.0336 1.0824.0336 10.1014 0 18.2924-8.0461 18.2924-17.9703 0-9.9227-8.191-17.968-18.2924-17.968Z"/></svg>