<svg xmlns="http://www.w3.org/2000/svg" width="284" height="4" fill="none"><path fill="#495DCF" fill-opacity=".20012" fill-rule="evenodd" d="M4 2c0 1.10457-.89543 2-2 2-1.104569 0-2-.89543-2-2C0 .895431.895431 0 2 0c1.10457 0 2 .895431 2 2Zm280 0c0 1.10457-.895 2-2 2s-2-.89543-2-2c0-1.104569.895-2 2-2s2 .895431 2 2Zm-19 2c1.105 0 2-.89543 2-2 0-1.104569-.895-2-2-2s-2 .895431-2 2c0 1.10457.895 2 2 2Zm-33-2c0 1.10457-.895 2-2 2s-2-.89543-2-2c0-1.104569.895-2 2-2s2 .895431 2 2Zm-37 2c1.105 0 2-.89543 2-2 0-1.104569-.895-2-2-2s-2 .895431-2 2c0 1.10457.895 2 2 2Zm-33-2c0 1.10457-.895 2-2 2s-2-.89543-2-2c0-1.104569.895-2 2-2s2 .895431 2 2Zm-20 2c1.105 0 2-.89543 2-2 0-1.104569-.895-2-2-2s-2 .895431-2 2c0 1.10457.895 2 2 2Zm-15-2c0 1.10457-.895 2-2 2s-2-.89543-2-2c0-1.104569.895-2 2-2s2 .895431 2 2Zm120 2c1.105 0 2-.89543 2-2 0-1.104569-.895-2-2-2s-2 .895431-2 2c0 1.10457.895 2 2 2Zm-33-2c0 1.10457-.895 2-2 2s-2-.89543-2-2c0-1.104569.895-2 2-2s2 .895431 2 2Zm-37 2c1.105 0 2-.89543 2-2 0-1.104569-.895-2-2-2s-2 .895431-2 2c0 1.10457.895 2 2 2Zm-68-2c0 1.10457-.895 2-2 2s-2-.89543-2-2c0-1.104569.895-2 2-2s2 .895431 2 2ZM90 4c1.1046 0 2-.89543 2-2 0-1.104569-.8954-2-2-2s-2 .895431-2 2c0 1.10457.8954 2 2 2ZM74 2c0 1.10457-.8954 2-2 2s-2-.89543-2-2c0-1.104569.8954-2 2-2s2 .895431 2 2ZM55 4c1.1046 0 2-.89543 2-2 0-1.104569-.8954-2-2-2s-2 .895431-2 2c0 1.10457.8954 2 2 2ZM39 2c0 1.10457-.8954 2-2 2s-2-.89543-2-2c0-1.104569.8954-2 2-2s2 .895431 2 2ZM20 4c1.1046 0 2-.89543 2-2 0-1.104569-.8954-2-2-2s-2 .895431-2 2c0 1.10457.8954 2 2 2Z" clip-rule="evenodd"/></svg>