<svg xmlns="http://www.w3.org/2000/svg" width="105" height="100" fill="none"><path fill="#FF9800" d="M105 50c0 28.8617-23.5134 50-52.5 50S0 76.5878 0 47.7261c0-9.0434 2.32969-17.5902 6.39187-25 .04594-.1372.13782-.2745.22969-.3659-2.28375-3.4044-3.28781-12.0426 2.50688-17.8189 0 2.41113 1.46346 6.5473 3.10406 9.638 1.3256 2.4569 2.7366 4.2277 3.7406 3.999 2.2838-.5424 10.2703-.5424 11.4122 0 1.8769-2.4046 6.4444-9.08917 13.7025-9.08917-4.0622 4.04467-15.7041 18.18477 4.5675 18.18477h4.5675L36.5203 36.363s1.5553 2.9993 0 4.5479c-1.7325-1.7316-9.1284 1.8622-9.1284 6.8152 0 4.9529 5.2959 11.363 15.9797 11.363 10.6837 0 7.9865-4.5478 13.6959-4.5478s6.8447 4.5478 6.8447 4.5478c-7.8553 0-13.5581 9.0892-22.8244 9.0892 4.5675 3.3651 7.5797 4.5478 13.6959 4.5478 15.1135 0 27.3919-12.2256 27.3919-27.2739 0-6.0899-2.0081-11.6832-5.3878-16.2245 6.1163 4.5478 10.2244 11.546 10.9594 19.4981.8203-3.1822 1.2797-6.593 1.2797-10.0888 0-13.6827-5.8407-31.77605-15.9797-38.637C87.6553 4.35834 105 18.4658 105 45.4522V50Z"/></svg>