<svg xmlns="http://www.w3.org/2000/svg" width="578" height="385" fill="none"><rect width="578" height="385" fill="#777" rx="26"/><rect width="574.23" height="381.865" x="2" y="2" fill="url(#a)" rx="25"/><rect width="471.463" height="353.756" x="54.0304" y="16.3029" fill="#2A2A2A" opacity=".1" rx="5"/><rect width="536" height="346" x="21.0304" y="19.3029" fill="#E8EAF6" rx="8"/><mask id="b" width="537" height="347" x="21" y="19" maskUnits="userSpaceOnUse" style="mask-type:alpha"><rect width="536" height="346" x="21.0304" y="19.3029" fill="#fff" rx="8"/></mask><g mask="url(#b)"><path fill="#5267DF" d="M17.5 19.5h547v59h-547z"/><circle cx="59.5" cy="49.5" r="16" fill="#fff" opacity=".244768"/><circle cx="520.5" cy="49.5" r="16" fill="#fff" opacity=".104399"/><rect width="120" height="6" x="90.5" y="39.5" fill="#fff" opacity=".75" rx="3"/><rect width="64" height="6" x="90.5" y="53.5" fill="#fff" opacity=".25" rx="3"/><rect width="261" height="316" x="78.0304" y="112.303" fill="#fff" rx="8"/><rect width="128" height="316" x="373.03" y="112.303" fill="#fff" rx="8"/><rect width="120" height="6" x="156.5" y="150.5" fill="#242A45" opacity=".5" rx="3"/></g><circle cx="125.5" cy="160.5" r="16" fill="#F98E5D"/><rect width="88" height="6" x="393.5" y="134.5" fill="#242A45" opacity=".25" rx="3"/><rect width="88" height="6" x="393.5" y="154.5" fill="#242A45" opacity=".25" rx="3"/><rect width="88" height="6" x="393.5" y="174.5" fill="#242A45" opacity=".25" rx="3"/><rect width="88" height="6" x="393.5" y="194.5" fill="#242A45" opacity=".25" rx="3"/><rect width="88" height="6" x="393.5" y="228.5" fill="#242A45" opacity=".25" rx="3"/><rect width="88" height="6" x="393.5" y="248.5" fill="#242A45" opacity=".25" rx="3"/><rect width="88" height="6" x="393.5" y="268.5" fill="#242A45" opacity=".25" rx="3"/><rect width="64" height="6" x="156.5" y="164.5" fill="#242A45" opacity=".25" rx="3"/><circle cx="125.5" cy="216.5" r="16" fill="#6AC6D6"/><rect width="120" height="6" x="156.5" y="206.5" fill="#242A45" opacity=".5" rx="3"/><rect width="64" height="6" x="156.5" y="220.5" fill="#242A45" opacity=".25" rx="3"/><circle cx="125.5" cy="272.5" r="16" fill="#A47ED4"/><rect width="120" height="6" x="156.5" y="262.5" fill="#242A45" opacity=".5" rx="3"/><rect width="64" height="6" x="156.5" y="276.5" fill="#242A45" opacity=".25" rx="3"/><circle cx="125.5" cy="328.5" r="16" fill="#EC7878"/><rect width="120" height="6" x="156.5" y="318.5" fill="#242A45" opacity=".5" rx="3"/><rect width="64" height="6" x="156.5" y="332.5" fill="#242A45" opacity=".25" rx="3"/><defs><linearGradient id="a" x1="847.542" x2="507.825" y1="195.906" y2="-314.944" gradientUnits="userSpaceOnUse"><stop stop-color="#151515"/><stop offset="1" stop-color="#3D3D3D"/></linearGradient></defs></svg>